:FULLY-SPECIFIED
:FORCE-ALL-JOINTS-BE-3DOF
:DEGREES
476
root 3.65074 16.3223 -7.15523 4.96637 59.9984 -6.35257
lfemur -39.1232 -2.23422 -22.0443
ltibia 49.3074 0 0
lfoot -20.2286 0.725005 0
ltoes 16.811 0 0
rfemur -21.7803 2.49407 9.55204
rtibia 70.9514 0 0
rfoot 25.3933 15.0872 0
rtoes -26.4373 0 0
lowerback 2.1887 -0.00365278 1.42379
upperback -0.344585 0.0584822 1.25207
thorax -1.57954 0.0245134 0.483063
lowerneck -8.46558 -6.90435 0.43094
upperneck 3.44585 -9.33968 1.44909
head 2.60867 -4.58695 -0.0628331
lclavicle -3.08407e-14 5.6159e-15 0
lhumerus -48.7747 -27.2515 108.165
lradius 56.1388 0 0
lwrist 5.12937 0 0
lhand -9.09889 -6.00152 0
lfingers 7.12502 0 0
lthumb 16.8502 23.273 0
rclavicle -3.08407e-14 5.6159e-15 0
rhumerus -55.0872 2.5114 -83.7404
rradius 62.6705 0 0
rwrist 14.8664 0 0
rhand -28.9713 -26.6063 0
rfingers 7.12502 0 0
rthumb -2.32401 -776.571 0
477
root 3.72378 16.339 -7.10697 5.25789 61.1482 -5.84455
lfemur -38.4116 -3.09101 -22.292
ltibia 48.8544 0 0
lfoot -20.3387 0.402636 0
ltoes 16.9767 0 0
rfemur -24.016 2.11113 9.51725
rtibia 72.7861 0 0
rfoot 24.5635 14.4094 0
rtoes -25.7246 0 0
lowerback 2.25316 -0.0500182 1.22944
upperback -0.345837 -0.0103715 1.14379
thorax -1.61674 -0.00898891 0.483704
lowerneck -8.46847 -7.01838 0.334732
upperneck 3.61745 -9.48981 1.51479
head 2.67751 -4.65845 -0.0388445
lclavicle -2.78327e-14 6.44081e-15 0
lhumerus -48.8772 -27.5532 108.451
lradius 56.2146 0 0
lwrist 5.16684 0 0
lhand -8.05174 -5.41042 0
lfingers 7.12502 0 0
lthumb 17.8572 23.7657 0
rclavicle -2.78327e-14 6.44081e-15 0
rhumerus -54.5564 3.19061 -84.4446
rradius 62.823 0 0
rwrist 15.5341 0 0
rhand -28.5021 -26.2613 0
rfingers 7.12502 0 0
rthumb -1.87083 -776.229 0
478
root 3.79922 16.3563 -7.05713 5.55901 62.336 -5.31978
lfemur -37.6767 -3.97604 -22.548
ltibia 48.3866 0 0
lfoot -20.4525 0.0696385 0
ltoes 17.1479 0 0
rfemur -26.3255 1.71555 9.48132
rtibia 74.6811 0 0
rfoot 23.7063 13.7092 0
rtoes -24.9884 0 0
lowerback 2.31975 -0.0979122 1.02869
upperback -0.347131 -0.081495 1.03195
thorax -1.65516 -0.0435956 0.484367
lowerneck -8.47145 -7.13617 0.235351
upperneck 3.7947 -9.64488 1.58264
head 2.74861 -4.73231 -0.014065
lclavicle -2.47254e-14 7.29292e-15 0
lhumerus -48.9831 -27.8649 108.748
lradius 56.2928 0 0
lwrist 5.20554 0 0
lhand -6.97006 -4.79983 0
lfingers 7.12502 0 0
lthumb 18.8974 24.2745 0
rclavicle -2.47254e-14 7.29292e-15 0
rhumerus -54.0081 3.89222 -85.172
rradius 62.9805 0 0
rwrist 16.2237 0 0
rhand -28.0175 -25.9048 0
rfingers 7.12502 0 0
rthumb -1.40272 -775.876 0
479
root 3.87467 16.3736 -7.00728 5.86013 63.5238 -4.79502
lfemur -36.9417 -4.86107 -22.804
ltibia 47.9188 0 0
lfoot -20.5662 -0.263359 0
ltoes 17.319 0 0
rfemur -28.6349 1.31998 9.44538
rtibia 76.5762 0 0
rfoot 22.8491 13.009 0
rtoes -24.2521 0 0
lowerback 2.38635 -0.145806 0.827934
upperback -0.348424 -0.152619 0.920105
thorax -1.69358 -0.0782024 0.48503
lowerneck -8.47443 -7.25396 0.135971
upperneck 3.97196 -9.79995 1.6505
head 2.81971 -4.80616 0.0107144
lclavicle -2.16181e-14 8.14502e-15 0
lhumerus -49.0889 -28.1766 109.044
lradius 56.3711 0 0
lwrist 5.24423 0 0
lhand -5.88839 -4.18925 0
lfingers 7.12502 0 0
lthumb 19.9377 24.7834 0
rclavicle -2.16181e-14 8.14502e-15 0
rhumerus -53.4597 4.59382 -85.8994
rradius 63.138 0 0
rwrist 16.9134 0 0
rhand -27.5328 -25.5484 0
rfingers 7.12502 0 0
rthumb -0.934609 -775.523 0
480
root 3.94771 16.3903 -6.95902 6.15165 64.6736 -4.287
lfemur -36.2301 -5.71786 -23.0517
ltibia 47.4658 0 0
lfoot -20.6763 -0.585728 0
ltoes 17.4847 0 0
rfemur -30.8706 0.937035 9.41059
rtibia 78.4109 0 0
rfoot 22.0193 12.3312 0
rtoes -23.5394 0 0
lowerback 2.45081 -0.192172 0.633587
upperback -0.349676 -0.221472 0.811831
thorax -1.73078 -0.111705 0.485671
lowerneck -8.47732 -7.36799 0.0397627
upperneck 4.14356 -9.95008 1.7162
head 2.88855 -4.87766 0.034703
lclavicle -1.86101e-14 8.96993e-15 0
lhumerus -49.1914 -28.4783 109.33
lradius 56.4469 0 0
lwrist 5.2817 0 0
lhand -4.84124 -3.59815 0
lfingers 7.12502 0 0
lthumb 20.9447 25.2761 0
rclavicle -1.86101e-14 8.96993e-15 0
rhumerus -52.9289 5.27303 -86.6036
rradius 63.2905 0 0
rwrist 17.5811 0 0
rhand -27.0636 -25.2034 0
rfingers 7.12502 0 0
rthumb -0.481436 -775.181 0
481
root 4.01594 16.4059 -6.91395 6.42394 65.7477 -3.81247
lfemur -35.5655 -6.51815 -23.2832
ltibia 47.0428 0 0
lfoot -20.7791 -0.886843 0
ltoes 17.6395 0 0
rfemur -32.9589 0.579337 9.3781
rtibia 80.1245 0 0
rfoot 21.2442 11.698 0
rtoes -22.8736 0 0
lowerback 2.51103 -0.23548 0.452055
upperback -0.350846 -0.285786 0.710696
thorax -1.76552 -0.142998 0.48627
lowerneck -8.48002 -7.4745 -0.0501023
upperneck 4.30385 -10.0903 1.77756
head 2.95284 -4.94445 0.0571099
lclavicle -1.58003e-14 9.74045e-15 0
lhumerus -49.2871 -28.7601 109.598
lradius 56.5177 0 0
lwrist 5.31669 0 0
lhand -3.86313 -3.04602 0
lfingers 7.12502 0 0
lthumb 21.8854 25.7362 0
rclavicle -1.58003e-14 9.74045e-15 0
rhumerus -52.4331 5.90746 -87.2613
rradius 63.433 0 0
rwrist 18.2047 0 0
rhand -26.6253 -24.8811 0
rfingers 7.12502 0 0
rthumb -0.0581423 -774.861 0
482
root 4.08166 16.4159 -6.86279 6.61682 66.8794 -3.40773
lfemur -34.9277 -7.28964 -23.3721
ltibia 46.7573 0 0
lfoot -20.9009 -1.26674 0
ltoes 17.8895 0 0
rfemur -34.8355 0.442126 9.6328
rtibia 80.7921 0 0
rfoot 20.3924 9.96774 0
rtoes -21.303 0 0
lowerback 2.63008 -0.276149 0.321151
upperback -0.322629 -0.345322 0.661311
thorax -1.80215 -0.17164 0.512456
lowerneck -8.48627 -7.58042 -0.15092
upperneck 4.43235 -10.2255 1.7981
head 3.00735 -5.01089 0.0684917
lclavicle -2.30368e-14 9.81024e-15 0
lhumerus -49.2516 -29.0338 109.911
lradius 56.4238 0 0
lwrist 5.13101 0 0
lhand -2.92232 -2.64399 0
lfingers 7.12502 0 0
lthumb 22.787 26.0141 0
rclavicle -2.30368e-14 9.81024e-15 0
rhumerus -51.9469 6.92075 -88.0266
rradius 64.1454 0 0
rwrist 18.7861 0 0
rhand -25.7007 -24.6402 0
rfingers 7.12502 0 0
rthumb 0.834759 -774.608 0
483
root 4.15201 16.4266 -6.80801 6.82332 68.091 -2.97442
lfemur -34.2448 -8.11559 -23.4672
ltibia 46.4516 0 0
lfoot -21.0312 -1.67345 0
ltoes 18.1571 0 0
rfemur -36.8447 0.295229 9.90548
rtibia 81.5069 0 0
rfoot 19.4804 8.11534 0
rtoes -19.6215 0 0
lowerback 2.75753 -0.319688 0.181007
upperback -0.292421 -0.409061 0.60844
thorax -1.84137 -0.202303 0.540491
lowerneck -8.49297 -7.69382 -0.258854
upperneck 4.56993 -10.3702 1.82009
head 3.06571 -5.08203 0.080677
lclavicle -3.07841e-14 9.88495e-15 0
lhumerus -49.2136 -29.3269 110.246
lradius 56.3234 0 0
lwrist 4.93222 0 0
lhand -1.9151 -2.21358 0
lfingers 7.12502 0 0
lthumb 23.7523 26.3117 0
rclavicle -3.07841e-14 9.88495e-15 0
rhumerus -51.4265 8.00556 -88.8459
rradius 64.9081 0 0
rwrist 19.4085 0 0
rhand -24.7108 -24.3824 0
rfingers 7.12502 0 0
rthumb 1.79069 -774.338 0
484
root 4.22469 16.4377 -6.75143 7.03663 69.3425 -2.52682
lfemur -33.5394 -8.96877 -23.5655
ltibia 46.1358 0 0
lfoot -21.1659 -2.09357 0
ltoes 18.4336 0 0
rfemur -38.92 0.14349 10.1872
rtibia 82.2452 0 0
rfoot 18.5384 6.20188 0
rtoes -17.8846 0 0
lowerback 2.88919 -0.364663 0.036242
upperback -0.261217 -0.474901 0.553826
thorax -1.88189 -0.233977 0.56945
lowerneck -8.49988 -7.81096 -0.370346
upperneck 4.71204 -10.5197 1.84281
head 3.126 -5.1555 0.093264
lclavicle -3.87868e-14 9.96213e-15 0
lhumerus -49.1744 -29.6297 110.592
lradius 56.2195 0 0
lwrist 4.72688 0 0
lhand -0.87467 -1.76898 0
lfingers 7.12502 0 0
lthumb 24.7494 26.619 0
rclavicle -3.87868e-14 9.96213e-15 0
rhumerus -50.8889 9.12613 -89.6923
rradius 65.696 0 0
rwrist 20.0514 0 0
rhand -23.6883 -24.116 0
rfingers 7.12502 0 0
rthumb 2.77813 -774.058 0
485
root 4.29737 16.4488 -6.69486 7.24993 70.594 -2.07923
lfemur -32.834 -9.82196 -23.6638
ltibia 45.8201 0 0
lfoot -21.3005 -2.51369 0
ltoes 18.7101 0 0
rfemur -40.9953 -0.00824933 10.4688
rtibia 82.9835 0 0
rfoot 17.5963 4.28841 0
rtoes -16.1476 0 0
lowerback 3.02085 -0.409638 -0.108523
upperback -0.230012 -0.540741 0.499212
thorax -1.9224 -0.265651 0.598408
lowerneck -8.50679 -7.9281 -0.481838
upperneck 4.85414 -10.6692 1.86553
head 3.18629 -5.22898 0.105851
lclavicle -4.67895e-14 1.00393e-14 0
lhumerus -49.1352 -29.9324 110.938
lradius 56.1157 0 0
lwrist 4.52154 0 0
lhand 0.165757 -1.32438 0
lfingers 7.12502 0 0
lthumb 25.7465 26.9264 0
rclavicle -4.67895e-14 1.00393e-14 0
rhumerus -50.3512 10.2467 -90.5386
rradius 66.4839 0 0
rwrist 20.6944 0 0
rhand -22.6659 -23.8496 0
rfingers 7.12502 0 0
rthumb 3.76558 -773.779 0
